<svg width="147" height="135" viewBox="0 0 147 135" fill="none" xmlns="http://www.w3.org/2000/svg">
<circle opacity="0.1" cx="79.5" cy="67.5" r="67.5" fill="url(#paint0_linear_37_1686)"/>
<path fill-rule="evenodd" clip-rule="evenodd" d="M76.4231 67.5012C64.6435 67.5012 55.0943 75.8799 55.0943 86.2155V86.2633C55.0943 96.5989 64.6435 104.978 76.4231 104.978H107.877C109.052 104.978 110.204 104.894 111.328 104.734L117.422 109.898C117.587 110.039 117.809 110.117 118.039 110.117C118.53 110.117 118.928 109.768 118.928 109.338L118.928 102.273C125.089 98.9914 129.206 93.0491 129.206 86.2633V86.2155C129.206 75.8799 119.656 67.5012 107.877 67.5012H76.4231Z" fill="#1D4885"/>
<path d="M81.5964 22.6649H36.6853C19.8573 22.6649 6.21558 34.6344 6.21558 49.3996C6.21558 64.1648 19.8573 76.1343 36.6853 76.1343H81.5964C98.4244 76.1343 112.066 64.1648 112.066 49.3996C112.066 34.6344 98.4244 22.6649 81.5964 22.6649Z" fill="url(#paint1_linear_37_1686)"/>
<path fill-rule="evenodd" clip-rule="evenodd" d="M20.895 68.3577V82.3535C20.895 82.9688 21.4634 83.4675 22.1646 83.4675C22.4934 83.4675 22.8095 83.3555 23.0461 83.1552L34.7678 73.2316L20.895 68.3577Z" fill="url(#paint2_linear_37_1686)"/>
<path d="M38.7484 52.7415C41.4655 52.7415 43.668 50.8089 43.668 48.4249C43.668 46.041 41.4655 44.1084 38.7484 44.1084C36.0314 44.1084 33.8289 46.041 33.8289 48.4249C33.8289 50.8089 36.0314 52.7415 38.7484 52.7415Z" fill="white"/>
<path d="M58.903 52.7415C61.62 52.7415 63.8226 50.8089 63.8226 48.4249C63.8226 46.041 61.62 44.1084 58.903 44.1084C56.186 44.1084 53.9834 46.041 53.9834 48.4249C53.9834 50.8089 56.186 52.7415 58.903 52.7415Z" fill="white"/>
<path d="M79.5334 52.7415C82.2504 52.7415 84.453 50.8089 84.453 48.4249C84.453 46.041 82.2504 44.1084 79.5334 44.1084C76.8164 44.1084 74.6138 46.041 74.6138 48.4249C74.6138 50.8089 76.8164 52.7415 79.5334 52.7415Z" fill="white"/>
<defs>
<linearGradient id="paint0_linear_37_1686" x1="173.583" y1="-204.224" x2="72.4065" y2="149.495" gradientUnits="userSpaceOnUse">
<stop stop-color="#5498FF"/>
<stop offset="0.515625" stop-color="#428EFF"/>
<stop offset="1" stop-color="#297FFF"/>
</linearGradient>
<linearGradient id="paint1_linear_37_1686" x1="132.909" y1="-58.2221" x2="111.458" y2="90.2381" gradientUnits="userSpaceOnUse">
<stop stop-color="#5498FF"/>
<stop offset="0.515625" stop-color="#428EFF"/>
<stop offset="1" stop-color="#297FFF"/>
</linearGradient>
<linearGradient id="paint2_linear_37_1686" x1="37.4995" y1="45.5" x2="25.337" y2="84.5398" gradientUnits="userSpaceOnUse">
<stop stop-color="#5498FF"/>
<stop offset="0.515625" stop-color="#428EFF"/>
<stop offset="1" stop-color="#297FFF"/>
</linearGradient>
</defs>
</svg>
